# xmcd
#
# Track frame offsets:
#	150
#	20992
#	39976
#	58466
#	74907
#	89098
#	107724
#	123444
#	134544
#	152750
#
# Disc length: 2245 seconds
#
# Revision: 0
# Processed by: cddbd v1.5.2PL0 Copyright (c) Steve Scherf et al.
# Submitted via: dBpowerAMP V4.0
#
DISCID=9e08c30a
DTITLE=XRey - Déjà Vu
DYEAR=1900
DGENRE=Blues
TTITLE0=Fighting on the front line
TTITLE1=Déjà vu
TTITLE2=All night and day
TTITLE3=Psycho man
TTITLE4=Jette Swing
TTITLE5=Juliana
TTITLE6=Norma Lee
TTITLE7=Schapenkop
TTITLE8=Brussels blues
TTITLE9=Rock'n'roll party animal
EXTD=
EXTT0=
EXTT1=
EXTT2=
EXTT3=
EXTT4=
EXTT5=
EXTT6=
EXTT7=
EXTT8=
EXTT9=
PLAYORDER=
